<svg t="1682566948978" class="icon" viewBox="0 0 1024 1024" version="1.1"
    xmlns="http://www.w3.org/2000/svg" p-id="5439" width="16" height="16" style="margin-top:2px">
    <path
        d="M512 465.454545c-12.846545 0-23.272727 10.426182-23.272727 23.272727l0 279.272727c0 12.846545 10.426182 23.272727 23.272727 23.272727 12.846545 0 23.272727-10.426182 23.272727-23.272727l0-279.272727C535.272727 475.880727 524.846545 465.454545 512 465.454545zM512 69.818182c-257.070545 0-465.454545 208.384-465.454545 465.454545 0 257.070545 208.384 465.454545 465.454545 465.454545 257.070545 0 465.454545-208.384 465.454545-465.454545C977.454545 278.202182 769.070545 69.818182 512 69.818182zM512 954.181818c-231.377455 0-418.909091-187.531636-418.909091-418.909091 0-231.377455 187.531636-418.909091 418.909091-418.909091s418.909091 187.531636 418.909091 418.909091C930.909091 766.650182 743.377455 954.181818 512 954.181818zM512 279.272727c-25.693091 0-46.545455 20.852364-46.545455 46.545455s20.852364 46.545455 46.545455 46.545455 46.545455-20.852364 46.545455-46.545455S537.693091 279.272727 512 279.272727z"
        fill="#040000" p-id="5440"></path>
</svg>