<svg t="1703648774817" class="icon" viewBox="0 0 1024 1024" version="1.1" xmlns="http://www.w3.org/2000/svg" p-id="21630" width="200" height="200"><path d="M591.094657 243.338277a5.605839 5.605839 0 0 1-1.352876 11.136935A303.948613 303.948613 0 0 0 553.109489 252.262774a5.605839 5.605839 0 1 1 0-11.211679c12.766365 0 25.443036 0.769869 37.985168 2.287182z m73.847591 18.357256a5.605839 5.605839 0 0 1-4.013781 10.464233 298.454891 298.454891 0 0 0-34.980438-11.024817 5.605839 5.605839 0 1 1 2.705752-10.875329 309.666569 309.666569 0 0 1 36.295942 11.435913z m67.195329 35.787679a5.605839 5.605839 0 0 1-6.442978 9.178627 300.884088 300.884088 0 0 0-31.250687-19.209343 5.605839 5.605839 0 0 1 5.269489-9.8887c11.211679 5.979562 22.034686 12.631825 32.424176 19.919416z m56.364846 50.751533a5.605839 5.605839 0 0 1-8.446131 7.36981 302.745226 302.745226 0 0 0-25.742015-26.160584 5.605839 5.605839 0 1 1 7.496876-8.334015 313.956905 313.956905 0 0 1 26.69127 27.132263z m42.753869 63.263766a5.605839 5.605839 0 0 1-9.985869 5.097577 300.637431 300.637431 0 0 0-18.63381-31.60946 5.605839 5.605839 0 1 1 9.290745-6.271066 311.849109 311.849109 0 0 1 19.336408 32.782949z m26.063416 71.762219a5.605839 5.605839 0 1 1-10.92765 2.503942 298.469839 298.469839 0 0 0-10.359591-35.189723 5.605839 5.605839 0 1 1 10.538978-3.819445 309.681518 309.681518 0 0 1 10.748263 36.505226z m7.803328 75.118248a5.605839 5.605839 0 1 1-11.211678-0.179387 304.359708 304.359708 0 0 0-1.607008-36.789255 5.605839 5.605839 0 0 1 11.151884-1.166015 315.571387 315.571387 0 0 1 1.666802 38.142132z m-10.449284 75.267737a5.605839 5.605839 0 0 1-10.837956-2.885138c3.146745-11.794686 5.568467-23.798657 7.250219-35.967066a5.605839 5.605839 0 0 1 11.114511 1.539737 310.503708 310.503708 0 0 1-7.526774 37.312467z m-28.462716 70.558832a5.605839 5.605839 0 0 1-9.799007-5.441401 299.471416 299.471416 0 0 0 15.793518-33.119299 5.605839 5.605839 0 0 1 10.389489 4.193168 310.683095 310.683095 0 0 1-16.384 34.367532z m-44.592583 61.425052a5.605839 5.605839 0 1 1-8.214424-7.631417 302.386453 302.386453 0 0 0 23.320292-28.335649 5.605839 5.605839 0 1 1 9.08146 6.577518 313.598131 313.598131 0 0 1-24.187328 29.389548z m-58.353052 49.107153a5.605839 5.605839 0 1 1-6.129051-9.395387 301.94546 301.94546 0 0 0 29.471767-21.862774 5.605839 5.605839 0 1 1 7.220321 8.580672 313.157139 313.157139 0 0 1-30.570511 22.677489z m-68.74254 33.582715a5.605839 5.605839 0 0 1-3.647533-10.606248 298.903358 298.903358 0 0 0 33.904117-14.022073 5.605839 5.605839 0 0 1 4.910716 10.075562 310.115036 310.115036 0 0 1-35.1673 14.552759z m-73.683153 15.62908a5.605839 5.605839 0 0 1-0.979153-11.166832 300.428146 300.428146 0 0 0 36.280992-5.441401 5.605839 5.605839 0 1 1 2.33203 10.965022 311.639825 311.639825 0 0 1-37.633869 5.643211z m-76.164672-2.51889a5.605839 5.605839 0 0 1 1.726599-11.077139c12.041343 1.876088 24.232175 3.027153 36.535124 3.438248a5.605839 5.605839 0 0 1-0.373723 11.204205 313.575708 313.575708 0 0 1-37.888-3.565314z m-73.272058-20.891095a5.605839 5.605839 0 0 1 4.372555-10.314744 298.529635 298.529635 0 0 0 34.591766 12.213255 5.605839 5.605839 0 1 1-3.072 10.778161 309.741314 309.741314 0 0 1-35.892321-12.676672z m-65.894774-38.044963a5.605839 5.605839 0 0 1 6.741957-8.94692 301.32508 301.32508 0 0 0 30.585459 20.248292 5.605839 5.605839 0 1 1-5.605839 9.709314 312.536759 312.536759 0 0 1-31.721577-21.003212z m-54.60835-52.605198a5.605839 5.605839 0 0 1 8.700263-7.078306 302.677956 302.677956 0 0 0 24.837606 27.012671 5.605839 5.605839 0 0 1-7.780905 8.072409 313.889635 313.889635 0 0 1-25.756964-28.006774z m-40.608701-64.721284a5.605839 5.605839 0 1 1 10.157781-4.746278 300.174015 300.174015 0 0 0 17.54254 32.214891 5.605839 5.605839 0 0 1-9.492554 5.957139 311.385693 311.385693 0 0 1-18.207767-33.425752z m-23.41746-71.769694a5.605839 5.605839 0 1 1 11.002395-2.152642 298.619328 298.619328 0 0 0 9.238423 35.496175 5.605839 5.605839 0 0 1-10.651095 3.483095 309.831007 309.831007 0 0 1-9.589723-36.826628z m-5.426452-76.074978a5.605839 5.605839 0 1 1 11.19673 0.55311 306.99819 306.99819 0 0 0 0.373722 36.789255 5.605839 5.605839 0 1 1-11.181781 0.792292 316.498219 316.498219 0 0 1-0.388671-38.134657z m12.983124-74.894014a5.605839 5.605839 0 1 1 10.733314 3.251387 298.813664 298.813664 0 0 0-8.468555 35.69051 5.605839 5.605839 0 1 1-11.047241-1.920934c2.167591-12.542131 5.112526-24.904876 8.782482-37.028438z m30.847066-69.549781a5.605839 5.605839 0 1 1 9.612146 5.755328 299.904934 299.904934 0 0 0-16.899738 32.558715 5.605839 5.605839 0 1 1-10.247474-4.551941 311.116613 311.116613 0 0 1 17.535066-33.762102z m46.663007-59.915212a5.605839 5.605839 0 1 1 7.945343 7.907971 302.595737 302.595737 0 0 0-24.269547 27.535883 5.605839 5.605839 0 1 1-8.842278-6.891445 313.807416 313.807416 0 0 1 25.166482-28.552409z m59.989956-47.118949a5.605839 5.605839 0 1 1 5.792701 9.597197 301.571737 301.571737 0 0 0-30.18184 20.853723 5.605839 5.605839 0 1 1-6.921343-8.819854 312.783416 312.783416 0 0 1 31.310482-21.631066z m69.90108-31.235737a5.605839 5.605839 0 1 1 3.273811 10.725839 298.634277 298.634277 0 0 0-34.352584 12.856059 5.605839 5.605839 0 1 1-4.566891-10.24 309.845956 309.845956 0 0 1 35.653139-13.341898z m74.071825-13.095241a5.605839 5.605839 0 0 1 0.605431 11.19673 301.519416 301.519416 0 0 0-36.445431 4.215591 5.605839 5.605839 0 1 1-1.958306-11.039766 312.731095 312.731095 0 0 1 37.798306-4.372555z" fill="#82B3F4" p-id="21631"></path><path d="M591.244146 311.273577a5.605839 5.605839 0 0 1-1.726599 11.077138A235.370511 235.370511 0 0 0 553.109489 319.532847a5.605839 5.605839 0 1 1 0-11.211679c12.856058 0 25.6 0.994102 38.134657 2.952409z m72.77127 23.559474a5.605839 5.605839 0 0 1-5.082628 9.985869 232.066803 232.066803 0 0 0-33.72473-13.947329 5.605839 5.605839 0 1 1 3.460672-10.666044 243.278482 243.278482 0 0 1 35.354161 14.627504z m61.925839 44.92146a5.605839 5.605839 0 0 1-7.915445 7.945343 234.862248 234.862248 0 0 0-27.775065-23.68654 5.605839 5.605839 0 1 1 6.592467-9.073986 246.073927 246.073927 0 0 1 29.098043 24.815183z m44.92146 61.410102a5.605839 5.605839 0 0 1-9.970919 5.134949 233.636438 233.636438 0 0 0-19.209343-31.041401 5.605839 5.605839 0 1 1 9.051562-6.62984 244.848117 244.848117 0 0 1 20.121226 32.536292z m23.963095 73.077723a5.605839 5.605839 0 1 1-11.06219 1.771445 231.984584 231.984584 0 0 0-8.565722-35.473752 5.605839 5.605839 0 0 1 10.658569-3.47562c3.946511 12.101139 6.951241 24.523679 8.969343 37.177927z m0.343825 75.536817a5.605839 5.605839 0 1 1-11.084613-1.666803 235.071533 235.071533 0 0 0 2.541314-29.957605l0.052321-6.450453a5.605839 5.605839 0 0 1 11.211679-0.06727l0.007474 1.464993c0 12.362745-0.919358 24.613372-2.728175 36.677138z m-23.111007 72.913285a5.605839 5.605839 0 0 1-10.015767-5.022832 232.029431 232.029431 0 0 0 13.738044-33.806949 5.605839 5.605839 0 0 1 10.688467 3.393401 243.241109 243.241109 0 0 1-14.410744 35.43638z m-44.547737 62.187445a5.605839 5.605839 0 1 1-7.99019-7.863124 234.83235 234.83235 0 0 0 23.522102-27.91708 5.605839 5.605839 0 1 1 9.111358 6.532671 246.044029 246.044029 0 0 1-24.64327 29.247533z m-61.148497 45.295183a5.605839 5.605839 0 0 1-5.194744-9.933548 233.696234 233.696234 0 0 0 30.929284-19.38873 5.605839 5.605839 0 0 1 6.674686 9.006716 244.907912 244.907912 0 0 1-32.409226 20.323036z m-72.928233 24.419036a5.605839 5.605839 0 0 1-1.838716-11.06219 231.932263 231.932263 0 0 0 35.428905-8.775007 5.605839 5.605839 0 1 1 3.535416 10.636146 243.143942 243.143942 0 0 1-37.125605 9.193577z m-75.536818 0.792292a5.605839 5.605839 0 0 1 1.599533-11.099562c11.06219 1.592058 22.288818 2.399299 33.635036 2.399299l2.795446-0.014949a5.605839 5.605839 0 0 1 0.13454 11.211679l-2.929986 0.014949c-11.88438 0-23.641693-0.844613-35.234569-2.511416z m-73.04035-22.66254a5.605839 5.605839 0 0 1 4.963036-10.053139c10.912701 5.381606 22.236496 9.911124 33.881694 13.528759a5.605839 5.605839 0 1 1-3.326132 10.710891 243.196263 243.196263 0 0 1-35.518598-14.186511zM382.392993 728.534891a5.605839 5.605839 0 0 1 7.825752-8.035037 234.802453 234.802453 0 0 0 28.05162 23.35019 5.605839 5.605839 0 0 1-6.48035 9.14873 246.014131 246.014131 0 0 1-29.397022-24.463883z m-45.653957-60.871942a5.605839 5.605839 0 1 1 9.90365-5.25454 233.756029 233.756029 0 0 0 19.568117 30.802219 5.605839 5.605839 0 0 1-8.969343 6.727007 244.967708 244.967708 0 0 1-20.502424-32.274686z m-24.852554-72.756321a5.605839 5.605839 0 0 1 11.047241-1.905986c2.070423 12.048818 5.082628 23.865927 8.999241 35.36911a5.605839 5.605839 0 1 1-10.613723 3.61016 243.106569 243.106569 0 0 1-9.432759-37.073284z m-1.248234-75.566716a5.605839 5.605839 0 1 1 11.107037 1.532263 235.729285 235.729285 0 0 0-2.204964 32.237314l0.037372 4.200642a5.605839 5.605839 0 0 1-11.211678 0.201811 248.959066 248.959066 0 0 1 2.272233-38.17203z m22.221548-73.17489a5.605839 5.605839 0 1 1 10.083036 4.910715 231.947212 231.947212 0 0 0-13.334423 33.971387 5.605839 5.605839 0 1 1-10.72584-3.258861 243.158891 243.158891 0 0 1 13.977227-35.615767z m43.785343-62.710657a5.605839 5.605839 0 0 1 8.079883 7.773431 234.772555 234.772555 0 0 0-23.170803 28.193635 5.605839 5.605839 0 1 1-9.193577-6.420555 245.984234 245.984234 0 0 1 24.291971-29.546511z m60.595387-46.027679a5.605839 5.605839 0 1 1 5.314335 9.866278 233.823299 233.823299 0 0 0-30.682627 19.762452 5.605839 5.605839 0 1 1-6.786803-8.924496 245.027504 245.027504 0 0 1 32.155095-20.704234z m72.621781-25.301022a5.605839 5.605839 0 1 1 1.965781 11.039767c-12.033869 2.145168-23.828555 5.232117-35.309314 9.208525a5.605839 5.605839 0 0 1-3.677431-10.591299 243.069197 243.069197 0 0 1 37.020964-9.656993z m43.232233-3.811971a5.605839 5.605839 0 1 1 0 11.211679c-1.868613 0-3.737226 0.022423-5.598365 0.06727a5.605839 5.605839 0 1 1-0.261606-11.211678c1.943358-0.044847 3.901664-0.06727 5.859971-0.067271z" fill="#D5E6FB" p-id="21632"></path><path d="M587.43965 166.276672l-1.450044 14.87416A378.341839 378.341839 0 0 0 549.372263 179.386861v-14.948905c12.773839 0 25.472934 0.612905 38.067387 1.838716z m74.774423 14.799416l-4.335182 14.306102a371.031825 371.031825 0 0 0-35.555971-8.87965l2.907562-14.664876a385.98073 385.98073 0 0 1 36.983591 9.238424z m70.371971 29.172788l-7.055883 13.17746a371.966131 371.966131 0 0 0-33.104351-15.681402l5.732905-13.812788a386.915036 386.915036 0 0 1 34.427329 16.31673z m63.21892 42.282978l-9.485081 11.555504a375.097927 375.097927 0 0 0-29.419445-21.825402l8.319066-12.430014a390.046832 390.046832 0 0 1 30.58546 22.699912z m54.010394 53.980496l-11.555504 9.492555a375.979912 375.979912 0 0 0-24.613372-27.147212l10.568876-10.568875a390.928818 390.928818 0 0 1 25.6 28.223532z m42.567007 63.652438l-13.184934 7.040935a373.580613 373.580613 0 0 0-18.835621-31.422599l12.430015-8.304117a388.536993 388.536993 0 0 1 19.583066 32.685781z m28.926131 69.796438l-14.298627 4.342657a370.859912 370.859912 0 0 0-12.370219-34.479649l13.805314-5.74038a385.808818 385.808818 0 0 1 12.871007 35.877372z m14.874161 74.841694l-14.874161 1.457518a373.251737 373.251737 0 0 0-5.359182-36.251095l14.664876-2.900088c2.466569 12.42254 4.320234 25.002044 5.568467 37.693665z m0.014949 76.426277l-14.874161-1.450044c1.173489-12.108613 1.771445-24.329343 1.771446-36.609868h14.948905c0 12.766365-0.62038 25.46546-1.84619 38.059912z m-14.799416 74.759475l-14.306102-4.335183a371.031825 371.031825 0 0 0 8.879649-35.555971l14.664876 2.907562a385.98073 385.98073 0 0 1-9.238423 36.983592z m-29.195212 70.394394l-13.17746-7.055884a371.966131 371.966131 0 0 0 15.688876-33.096875l13.805314 5.732905a386.915036 386.915036 0 0 1-16.31673 34.419854z m-42.290452 63.20397l-11.555504-9.492554a375.097927 375.097927 0 0 0 21.847825-29.42692l12.42254 8.319066a390.046832 390.046832 0 0 1-22.714861 30.600408z m-53.995446 54.00292l-9.492554-11.548029a375.979912 375.979912 0 0 0 27.147211-24.605898l10.568876 10.568876a390.928818 390.928818 0 0 1-28.223533 25.585051z m-63.62254 42.544584l-7.048409-13.184934a373.588088 373.588088 0 0 0 31.422599-18.835621l8.304117 12.437489a388.536993 388.536993 0 0 1-32.678307 19.583066z m-69.811387 28.926132l-4.335182-14.298628a370.859912 370.859912 0 0 0 34.479649-12.370219l5.732906 13.805314a385.808818 385.808818 0 0 1-35.877373 12.863533z m-74.879065 14.866686l-1.450044-14.881635c12.205781-1.195912 24.291971-2.974832 36.24362-5.344234l2.907562 14.664876c-12.430015 2.466569-25.009518 4.320234-37.701138 5.560993z m-76.388906 0l1.450044-14.874161c12.108613 1.180964 24.329343 1.77892 36.609869 1.77892v14.948905c-12.773839 0-25.46546-0.62038-38.059913-1.84619z m-74.752-14.799416l4.335183-14.306103a371.031825 371.031825 0 0 0 35.548496 8.87965l-2.907562 14.664876a385.98073 385.98073 0 0 1-36.976117-9.238423z m-70.424291-29.217635l7.063357-13.17746c10.770686 5.777752 21.825401 11.017343 33.111825 15.69635l-5.725431 13.812788a386.922511 386.922511 0 0 1-34.449751-16.331678z m-63.189022-42.305402l9.48508-11.548029a375.097927 375.097927 0 0 0 29.419445 21.847825l-8.319066 12.42254a390.046832 390.046832 0 0 1-30.585459-22.722336z m-53.987971-53.987971l11.548029-9.492554a375.979912 375.979912 0 0 0 24.613372 27.16216l-10.57635 10.561402a390.928818 390.928818 0 0 1-25.585051-28.231008z m-42.544584-63.652438l13.184934-7.040934a373.580613 373.580613 0 0 0 18.820672 31.422599l-12.430015 8.296642a388.529518 388.529518 0 0 1-19.583066-32.678307z m-28.911183-69.774014l14.306103-4.342657a370.859912 370.859912 0 0 0 12.362744 34.479649l-13.805314 5.732906a385.808818 385.808818 0 0 1-12.856058-35.877373z m-14.851737-74.894015l14.874161-1.450044c1.195912 12.205781 2.974832 24.299445 5.344233 36.251095l-14.664876 2.907562a388.215591 388.215591 0 0 1-5.553518-37.701138z m0-76.411328l14.874161 1.450043a378.311942 378.311942 0 0 0-1.77892 36.602395h-14.948905c0-12.773839 0.627854-25.46546 1.853664-38.052438z m14.82184-74.752l14.306102 4.335182a371.02435 371.02435 0 0 0-8.894599 35.541022l-14.657401-2.900088a385.973255 385.973255 0 0 1 9.245898-36.976116z m29.225109-70.409343l13.17746 7.055883a371.973606 371.973606 0 0 0-15.703825 33.111825l-13.805314-5.732905a386.922511 386.922511 0 0 1 16.331679-34.442278z m42.290453-63.159124l11.555503 9.48508a375.105401 375.105401 0 0 0-21.847825 29.411971l-12.42254-8.319066a390.046832 390.046832 0 0 1 22.722336-30.58546z m54.017868-54.010395l9.492555 11.555504a375.979912 375.979912 0 0 0-27.154686 24.598423l-10.568876-10.568876a390.928818 390.928818 0 0 1 28.231007-25.585051z m63.644964-42.529635l7.040934 13.192409a373.573139 373.573139 0 0 0-31.430073 18.828146l-8.296642-12.437489a388.522044 388.522044 0 0 1 32.685781-19.583066z m69.811387-28.903708l4.335182 14.306102a370.859912 370.859912 0 0 0-34.487124 12.355271l-5.725431-13.805314a385.808818 385.808818 0 0 1 35.877373-12.856059z m74.894014-14.836788l1.44257 14.874161a373.274161 373.274161 0 0 0-36.251095 5.336759l-2.900088-14.664876a388.223066 388.223066 0 0 1 37.701139-5.546044z" fill="#5999F1" p-id="21633"></path><path d="M549.372263 82.218978c-260.066102 0-470.890511 210.824409-470.890511 470.890511s210.824409 470.890511 470.890511 470.890511 470.890511-210.824409 470.890511-470.890511-210.824409-470.890511-470.890511-470.890511z m0 14.948905c251.814307 0 455.941606 204.127299 455.941606 455.941606s-204.127299 455.941606-455.941606 455.941606-455.941606-204.127299-455.941606-455.941606 204.127299-455.941606 455.941606-455.941606z" fill="#2F80ED" p-id="21634"></path><path d="M553.109489 403.620438c-82.562803 0-149.489051 66.926248-149.489051 149.489051s66.926248 149.489051 149.489051 149.489051 149.489051-66.926248 149.489051-149.489051a149.489051 149.489051 0 0 0-149.489051-149.489051z m74.95381 134.360759a44.36835 44.36835 0 0 1-25.502832 19.194394c-2.309606 0.747445-4.71638 1.15854-7.145576 1.195913a8.490978 8.490978 0 0 1 0-16.981957 4.574365 4.574365 0 0 0 1.883562-0.358773c6.801752-1.689226 12.661723-5.979562 16.324204-11.959124a21.974891 21.974891 0 0 0 3.228963-11.570453c0-13.424117-12.407591-24.486307-27.535883-24.486306-5.232117 0.007474-10.382015 1.36035-14.948905 3.916613a23.918248 23.918248 0 0 0-12.766365 20.569693v71.306277a40.421839 40.421839 0 0 1-21.227445 35.159825c-7.10073 3.998832-15.135766 6.054307-23.290394 5.979562-24.635796 0-44.846715-18.536642-44.846716-41.468262a39.764088 39.764088 0 0 1 5.770278-20.390307 44.36835 44.36835 0 0 1 25.502832-19.194394c2.31708-0.747445 4.71638-1.143591 7.145577-1.195913a8.490978 8.490978 0 1 1 0 16.981957 4.574365 4.574365 0 0 0-1.883563 0.358773 28.014248 28.014248 0 0 0-16.324204 11.959124 21.974891 21.974891 0 0 0-3.228963 11.570453c0 13.424117 12.407591 24.486307 27.71527 24.486307a30.734949 30.734949 0 0 0 14.948905-3.916614 23.918248 23.918248 0 0 0 12.736467-20.569693v-70.977401a40.511533 40.511533 0 0 1 21.257343-35.189723 44.159066 44.159066 0 0 1 23.111007-6.27854c24.635796 0 44.846715 18.536642 44.846716 41.468263a39.764088 39.764088 0 0 1-5.770278 20.390306z" fill="#2F80ED" p-id="21635"></path><path d="M620.379562 89.693431m-89.693431 0a89.693431 89.693431 0 1 0 179.386862 0 89.693431 89.693431 0 1 0-179.386862 0Z" fill="#49CFE7" p-id="21636"></path><path d="M904.408759 844.613139m-89.693431 0a89.693431 89.693431 0 1 0 179.386862 0 89.693431 89.693431 0 1 0-179.386862 0Z" fill="#49CFE7" p-id="21637"></path><path d="M946.190949 829.64181a2.810394 2.810394 0 0 0-0.194336-0.635328l-7.063358-17.60981c-1.22581-3.640058-4.611737-5.897343-8.857226-5.897344H880.415766c-4.170745 0-7.399708 2.219912-8.580671 5.725431L864.218628 829.185869a2.765547 2.765547 0 0 0-0.104643 0.418569 16.578336 16.578336 0 0 0 7.982716 19.829723c2.227387 1.203387 4.858394 1.793869 7.810803 1.793868h0.007474a16.51854 16.51854 0 0 0 12.676672-5.904817 16.503591 16.503591 0 0 0 12.601927 5.889868 16.458745 16.458745 0 0 0 12.542131-5.904817c3.116847 3.737226 7.721109 5.904818 12.69162 5.904817 3.012204-0.022423 5.688058-0.657752 7.945344-1.883562a16.645606 16.645606 0 0 0 7.810802-19.687708z m-17.318307 1.823767c0 1.920934-1.853664 3.498044-4.110949 3.498043H884.990131c-2.272234 0-4.110949-1.569635-4.110949-3.498043s1.853664-3.512993 4.110949-3.512993h39.771562c2.257285 0 4.110949 1.584584 4.110949 3.512993z" fill="#FFFFFF" p-id="21638"></path><path d="M941.25781 855.750073l0.007475 21.025635c0 4.252964-3.468146 7.736058-7.72111 7.743533l-56.79089 0.037372c-4.260438 0-7.721109-3.460672-7.728584-7.721109l-0.029898-20.719183a3.012204 3.012204 0 0 1 3.692379-2.944934l0.3513 0.13454 0.224233 0.074745c2.638482 0.986628 4.260438 1.524788 7.145577 1.524788h0.022423c4.731328 0 9.178628-1.442569 12.661723-4.417402 3.453197 2.944934 7.885547 4.133372 12.62435 4.155796a19.545693 19.545693 0 0 0 12.504759-4.649109c3.498044 2.982307 7.130628 3.924088 11.88438 4.170744 2.145168 0.119591 5.015358-0.358774 7.250219-1.233285a2.780496 2.780496 0 0 1 0.874511-0.179386 2.989781 2.989781 0 0 1 3.027153 3.004729z" fill="#FFFFFF" p-id="21639"></path><path d="M89.693431 523.211679m-89.693431 0a89.693431 89.693431 0 1 0 179.386861 0 89.693431 89.693431 0 1 0-179.386861 0Z" fill="#49CFE7" p-id="21640"></path><path d="M964.20438 351.29927m-52.321168 0a52.321168 52.321168 0 1 0 104.642335 0 52.321168 52.321168 0 1 0-104.642335 0Z" fill="#2F80ED" p-id="21641"></path><path d="M216.759124 881.985401m-52.321168 0a52.321168 52.321168 0 1 0 104.642336 0 52.321168 52.321168 0 1 0-104.642336 0Z" fill="#2F80ED" p-id="21642"></path><path d="M630.492496 83.609226c6.779328-3.617635 10.50908-10.352117 10.509081-18.140496C641.001577 54.100088 631.613664 44.846715 620.058161 44.846715s-20.950891 9.253372-20.950891 20.622015c0 7.795854 3.400876 14.522861 10.187679 18.140496-15.419796 4.335182-26.908029 19.381255-26.908029 36.176351 0 3.490569 0.246657 7.205372 7.803328 7.257693 6.749431 0.052321 45.825869-0.014949 59.765723 0 6.188847 0.007474 7.765956-3.617635 7.795854-7.250219 0.164438-16.65308-11.824584-31.841168-27.259329-36.183825zM130.003153 536.650745c-4.372555 0-8.072409 2.810394-9.462657 6.712058h-7.324963a3.363504 3.363504 0 0 1-3.363504-3.356029v-20.151124a10.090511 10.090511 0 0 0-10.083036-10.083037A10.090511 10.090511 0 0 0 89.693431 519.85565v36.946219a3.363504 3.363504 0 0 1-6.719533 0v-67.18038a10.090511 10.090511 0 0 0-10.075562-10.083036 10.090511 10.090511 0 0 0-10.075562 10.083036v23.507153a3.363504 3.363504 0 0 1-3.363504 3.363504h-0.620379a10.053139 10.053139 0 0 0-19.530745 3.363504 10.060613 10.060613 0 1 0 19.538219 3.363503l0.612905-0.007474a10.090511 10.090511 0 0 0 10.075562-10.083037v-23.507153a3.363504 3.363504 0 0 1 6.727007 0v67.18038a10.090511 10.090511 0 0 0 10.068088 10.083036 10.090511 10.090511 0 0 0 10.083037-10.090511v-36.938744a3.363504 3.363504 0 1 1 6.719532 0v20.151124a10.090511 10.090511 0 0 0 10.075562 10.075562h7.332438a10.060613 10.060613 0 0 0 19.538219-3.356029 10.090511 10.090511 0 0 0-10.075562-10.075562zM49.383708 523.211679a3.363504 3.363504 0 1 1 0.007474-6.727007 3.363504 3.363504 0 0 1-0.007474 6.727007z m80.619445 26.870657a3.363504 3.363504 0 1 1 0-6.712059 3.363504 3.363504 0 0 1 0 6.712059z" fill="#FFFFFF" p-id="21643"></path></svg>