<svg t="1682566877979" class="icon" viewBox="0 0 1024 1024" version="1.1"
    xmlns="http://www.w3.org/2000/svg" p-id="4450" width="16" height="16" style="margin-top:2px">
    <path
        d="M746.666667 170.666667h-64c-46.933333 0-85.333333 38.4-85.333334 85.333333v236.8c46.933333-53.333333 115.2-87.466667 192-87.466667 14.933333 0 27.733333 2.133333 42.666667 4.266667V256c0-46.933333-38.4-85.333333-85.333333-85.333333zM192 170.666667H128c-46.933333 0-85.333333 38.4-85.333333 85.333333v512c0 46.933333 38.4 85.333333 85.333333 85.333333h64c46.933333 0 85.333333-38.4 85.333333-85.333333V256c0-46.933333-38.4-85.333333-85.333333-85.333333z m0 565.333333c0 17.066667-14.933333 32-32 32S128 753.066667 128 736v-64c0-17.066667 14.933333-32 32-32s32 14.933333 32 32v64zM160 448c-17.066667 0-32-14.933333-32-32S142.933333 384 160 384s32 14.933333 32 32S177.066667 448 160 448z m0-106.666667c-17.066667 0-32-14.933333-32-32S142.933333 277.333333 160 277.333333s32 14.933333 32 32S177.066667 341.333333 160 341.333333zM469.333333 170.666667h-64c-46.933333 0-85.333333 38.4-85.333333 85.333333v512c0 46.933333 38.4 85.333333 85.333333 85.333333h64c46.933333 0 85.333333-38.4 85.333334-85.333333v-4.266667c-12.8-32-21.333333-66.133333-21.333334-102.4s8.533333-70.4 21.333334-102.4V256c0-46.933333-38.4-85.333333-85.333334-85.333333z m0 565.333333c0 17.066667-14.933333 32-32 32s-32-14.933333-32-32v-64c0-17.066667 14.933333-32 32-32s32 14.933333 32 32v64zM437.333333 448c-17.066667 0-32-14.933333-32-32s14.933333-32 32-32 32 14.933333 32 32-14.933333 32-32 32z m0-106.666667c-17.066667 0-32-14.933333-32-32s14.933333-32 32-32 32 14.933333 32 32-14.933333 32-32 32zM789.333333 469.333333c-106.666667 0-192 85.333333-192 192s85.333333 192 192 192 192-85.333333 192-192-85.333333-192-192-192z m-27.733333 279.466667h-64c-12.8 0-19.2-8.533333-19.2-21.333333v-142.933334c0-12.8 6.4-19.2 19.2-19.2 12.8 0 19.2 6.4 19.2 19.2v128h44.8c12.8 0 19.2 6.4 19.2 17.066667-2.133333 12.8-8.533333 19.2-19.2 19.2z m100.266667 0h-53.333334c-12.8 0-19.2-6.4-19.2-19.2v-145.066667c0-12.8 6.4-19.2 19.2-19.2h49.066667c29.866667 2.133333 46.933333 17.066667 49.066667 44.8 0 17.066667-8.533333 29.866667-23.466667 36.266667 23.466667 6.4 36.266667 19.2 38.4 42.666667-2.133333 38.4-21.333333 57.6-59.733333 59.733333z"
        p-id="4451"></path>
    <path
        d="M853.333333 672h-27.733333v42.666667h29.866667c14.933333 0 23.466667-8.533333 23.466666-21.333334 0-14.933333-8.533333-21.333333-25.6-21.333333zM868.266667 618.666667c0-10.666667-8.533333-17.066667-21.333334-17.066667h-19.2V640h19.2c12.8-2.133333 19.2-8.533333 21.333334-21.333333z"
        p-id="4452"></path>
</svg>