<svg version="1.0" xmlns="http://www.w3.org/2000/svg"
 width="20" height="20" style="margin-top:5px" viewBox="0 0 250.000000 250.000000"
 preserveAspectRatio="xMidYMid meet">

<g transform="translate(0.000000,250.000000) scale(0.100000,-0.100000)"
fill="#000000" stroke="none">
<path d="M1508 1787 c-152 -57 -227 -170 -216 -326 6 -87 36 -150 98 -211 49
-47 88 -69 278 -156 100 -46 132 -79 132 -137 -1 -74 -58 -117 -157 -117 -77
1 -137 28 -193 89 l-45 49 -84 -48 c-46 -26 -87 -52 -92 -57 -11 -11 40 -89
83 -127 116 -101 299 -140 468 -100 175 41 272 172 258 349 -13 157 -98 244
-338 345 -54 23 -116 56 -137 75 -34 29 -38 38 -38 79 0 60 34 96 97 103 49 6
119 -22 137 -55 27 -46 25 -46 117 14 49 31 91 58 93 60 5 4 -39 62 -75 98
-16 15 -51 40 -79 54 -43 23 -65 26 -160 29 -75 2 -122 -1 -147 -10z"/>
<path d="M850 1349 l0 -441 -34 -34 c-30 -30 -41 -34 -84 -34 -56 0 -87 19
-132 81 l-27 38 -91 -55 c-51 -30 -92 -61 -92 -68 0 -19 51 -87 90 -119 98
-83 254 -110 392 -67 86 26 146 79 184 162 l29 63 3 458 3 457 -121 0 -120 0
0 -441z"/>
</g>
</svg>
