<svg t="1706526826483" class="icon" viewBox="0 0 1024 1024" version="1.1" xmlns="http://www.w3.org/2000/svg" p-id="3106" width="24" height="24"><path d="M0 1.008h1023.332v1022.868H0z" fill="#FBDE34" p-id="3107"></path><path d="M441.036 788.16v29.92h-32.76v80.636c0 7.56 1.26 12.6 3.78 15.12 2.52 2.52 7.56 3.776 15.12 3.776 2.52 0 4.932-0.1 7.244-0.312a61 61 0 0 0 6.616-0.944v34.644c-3.78 0.632-7.984 1.052-12.6 1.26a300.08 300.08 0 0 1-13.544 0.316c-6.928 0-13.496-0.472-19.684-1.416-6.2-0.948-11.656-2.78-16.38-5.512-4.72-2.728-8.456-6.616-11.18-11.656-2.732-5.04-4.096-11.652-4.096-19.84V818.08h-27.088v-29.92h27.088v-48.824h44.728v48.82h32.756z m62.992-62.052v84.728h0.944c5.672-9.448 12.92-16.32 21.736-20.632 8.816-4.3 17.424-6.456 25.828-6.456 11.968 0 21.78 1.628 29.448 4.88 7.66 3.26 13.704 7.772 18.112 13.548 4.412 5.776 7.504 12.808 9.292 21.1 1.78 8.3 2.676 17.48 2.676 27.56v100.164h-44.728v-91.968c0-13.44-2.1-23.468-6.296-30.08-4.204-6.616-11.656-9.928-22.364-9.928-12.18 0-21 3.624-26.46 10.868-5.46 7.244-8.188 19.164-8.188 35.752v85.36h-44.728v-224.896h44.728z m174.18 185.836c6.72 6.512 16.376 9.76 28.976 9.76 9.024 0 16.796-2.248 23.308-6.768 6.508-4.516 10.5-9.292 11.968-14.332h39.372c-6.296 19.528-15.96 33.496-28.976 41.892-13.024 8.4-28.772 12.6-47.248 12.6-12.812 0-24.36-2.048-34.648-6.144-10.288-4.096-19.008-9.92-26.144-17.48-7.14-7.56-12.652-16.584-16.536-27.084-3.888-10.5-5.824-22.052-5.824-34.648 0-12.176 1.988-23.52 5.98-34.02 3.988-10.496 9.656-19.576 17.012-27.244 7.348-7.664 16.112-13.7 26.3-18.112 10.18-4.412 21.468-6.616 33.86-6.616 13.86 0 25.932 2.676 36.224 8.032 10.28 5.36 18.74 12.548 25.352 21.576 6.616 9.032 11.392 19.32 14.332 30.872 2.94 11.548 3.988 23.62 3.148 36.22h-117.48c0.628 14.488 4.3 24.992 11.024 31.496z m50.552-85.672c-5.356-5.88-13.496-8.82-24.412-8.82-7.14 0-13.072 1.212-17.796 3.62-4.724 2.416-8.5 5.408-11.34 8.98-2.832 3.572-4.832 7.352-5.984 11.336-1.156 3.992-1.84 7.56-2.048 10.708h72.76c-2.1-11.336-5.824-19.944-11.18-25.824z m109.136-38.116v22.68h0.948c5.668-9.448 13.016-16.32 22.048-20.632 9.024-4.3 18.268-6.456 27.72-6.456 11.968 0 21.78 1.628 29.448 4.88 7.66 3.26 13.7 7.772 18.112 13.548 4.408 5.776 7.504 12.808 9.292 21.1 1.78 8.3 2.676 17.48 2.676 27.56v100.164h-44.728v-91.968c0-13.44-2.1-23.468-6.3-30.08-4.2-6.616-11.652-9.928-22.36-9.928-12.184 0-21 3.624-26.46 10.868-5.464 7.244-8.192 19.164-8.192 35.752v85.36h-44.724v-162.848h42.52z" fill="#524739" p-id="3108"></path></svg>