<svg t="1682654114345" class="icon" viewBox="0 0 1024 1024" version="1.1" xmlns="http://www.w3.org/2000/svg" p-id="22345" width="20" height="20"><path d="M336.384 703.0784a15.36 15.36 0 0 1-15.36-15.36v-351.232a15.36 15.36 0 0 1 30.72 0v351.232a15.36 15.36 0 0 1-15.36 15.36zM687.4112 703.0784a15.36 15.36 0 0 1-15.36-15.36V336.6912a15.36 15.36 0 0 1 30.72 0v351.0272a15.36 15.36 0 0 1-15.36 15.36z" fill="#099DFD" p-id="22346"></path><path d="M687.4112 351.8464H336.384a15.36 15.36 0 0 1 0-30.72h351.0272a15.36 15.36 0 0 1 0 30.72zM687.4112 703.0784H336.384a15.36 15.36 0 1 1 0-30.72h351.0272a15.36 15.36 0 0 1 0 30.72zM609.28 624.896H414.0544a15.36 15.36 0 0 1 0-30.72H609.28a15.36 15.36 0 0 1 0 30.72zM609.28 430.08H414.72a15.36 15.36 0 0 1 0-30.72h194.56a15.36 15.36 0 0 1 0 30.72z" fill="#099DFD" p-id="22347"></path><path d="M609.28 624.896a15.36 15.36 0 0 1-15.36-15.36V414.72a15.36 15.36 0 1 1 30.72 0v194.8672a15.36 15.36 0 0 1-15.36 15.3088zM414.0544 624.896a15.36 15.36 0 0 1-15.36-15.36V414.72a15.36 15.36 0 0 1 30.72 0v194.56a15.36 15.36 0 0 1-15.36 15.616zM414.72 351.8464a15.36 15.36 0 0 1-15.36-15.36v-97.28a15.36 15.36 0 1 1 30.72 0v97.28a15.36 15.36 0 0 1-15.36 15.36zM511.6416 351.8464a15.36 15.36 0 0 1-15.36-15.36v-97.28a15.36 15.36 0 1 1 30.72 0v97.28a15.36 15.36 0 0 1-15.36 15.36zM609.28 351.8464a15.36 15.36 0 0 1-15.36-15.36v-97.28a15.36 15.36 0 1 1 30.72 0v97.28a15.36 15.36 0 0 1-15.36 15.36zM414.72 800.1024a15.36 15.36 0 0 1-15.36-15.36v-97.28a15.36 15.36 0 0 1 30.72 0v97.28a15.36 15.36 0 0 1-15.36 15.36zM511.6416 800.1024a15.36 15.36 0 0 1-15.36-15.36v-97.28a15.36 15.36 0 0 1 30.72 0v97.28a15.36 15.36 0 0 1-15.36 15.36zM609.28 800.1024a15.36 15.36 0 0 1-15.36-15.36v-97.28a15.36 15.36 0 0 1 30.72 0v97.28a15.36 15.36 0 0 1-15.36 15.36zM784.7424 430.08h-97.28a15.36 15.36 0 0 1 0-30.72h97.28a15.36 15.36 0 0 1 0 30.72zM784.7424 527.0016h-97.28a15.36 15.36 0 0 1 0-30.72h97.28a15.36 15.36 0 0 1 0 30.72zM784.7424 624.64h-97.28a15.36 15.36 0 0 1 0-30.72h97.28a15.36 15.36 0 0 1 0 30.72zM336.4864 430.08h-97.28a15.36 15.36 0 1 1 0-30.72h97.28a15.36 15.36 0 0 1 0 30.72zM336.4864 527.0016h-97.28a15.36 15.36 0 1 1 0-30.72h97.28a15.36 15.36 0 0 1 0 30.72zM336.4864 624.64h-97.28a15.36 15.36 0 1 1 0-30.72h97.28a15.36 15.36 0 0 1 0 30.72z" fill="#099DFD" p-id="22348"></path></svg>