<svg t="1682651473686" class="icon" viewBox="0 0 1024 1024" version="1.1" xmlns="http://www.w3.org/2000/svg" p-id="15584" width="20" height="20"><path d="M480 576c-137.6 0-249.6-112-249.6-249.6s112-249.6 249.6-249.6 249.6 112 249.6 249.6S617.6 576 480 576z m0-428.8c-99.2 0-179.2 80-179.2 179.2 0 99.2 80 179.2 179.2 179.2 99.2 0 179.2-80 179.2-179.2 0-99.2-80-179.2-179.2-179.2z" fill="#19AA8D" p-id="15585"></path><path d="M134.4 960c-19.2 0-35.2-16-35.2-35.2 0-217.6 179.2-396.8 396.8-396.8 67.2 0 131.2 16 188.8 48 16 9.6 22.4 28.8 12.8 48-9.6 16-28.8 22.4-48 12.8-48-25.6-102.4-38.4-156.8-38.4-179.2 0-326.4 147.2-326.4 326.4 3.2 19.2-12.8 35.2-32 35.2z" fill="#19AA8D" p-id="15586"></path><path d="M870.4 726.4h-281.6c-9.6 0-16-6.4-16-16s6.4-16 16-16h281.6c9.6 0 16 6.4 16 16s-6.4 16-16 16zM870.4 816h-281.6c-9.6 0-16-6.4-16-16s6.4-16 16-16h281.6c9.6 0 16 6.4 16 16 0 6.4-6.4 16-16 16zM870.4 902.4h-281.6c-9.6 0-16-6.4-16-16s6.4-16 16-16h281.6c9.6 0 16 6.4 16 16s-6.4 16-16 16z" fill="#F8AC59" p-id="15587"></path></svg>